<svg xmlns="http://www.w3.org/2000/svg" height="40" viewBox="0 -960 960 960" width="40"><path d="M440.747-435.225v123.08q0 17.698 12.247 29.856 12.247 12.158 29.673 12.158 17.762 0 29.602-11.923 11.839-11.923 11.839-30.13v-123.041h124.414q17.048 0 29.197-12.079 12.15-12.08 12.15-29.722 0-17.642-11.914-29.601-11.915-11.96-29.473-11.96H524.108v-129.935q0-17.048-11.956-29.197-11.957-12.15-29.599-12.15t-29.724 11.914q-12.082 11.915-12.082 29.473v129.895H312.145q-17.698 0-29.856 12.125-12.158 12.124-12.158 29.55 0 17.762 11.923 29.724 11.923 11.963 30.13 11.963h128.563Zm39.147 378.471q-87.578 0-164.737-33.333-77.159-33.334-134.448-90.622-57.288-57.289-90.622-134.563-33.333-77.274-33.333-165.039 0-87.78 33.392-164.969 33.393-77.19 90.92-134.717 57.527-57.528 134.499-90.468 76.972-32.94 164.438-32.94 87.828 0 165.248 32.924 77.42 32.924 134.787 90.436 57.368 57.513 90.368 134.942 32.999 77.428 32.999 165.315 0 87.876-32.94 164.546-32.94 76.671-90.468 134.064-57.527 57.394-134.898 90.909-77.372 33.515-165.205 33.515Zm.385-89.26q138.799 0 236.253-97.633 97.454-97.632 97.454-236.632 0-138.799-97.274-236.253-97.275-97.454-236.737-97.454-138.546 0-236.253 97.274-97.708 97.275-97.708 236.737 0 138.546 97.633 236.253 97.632 97.708 236.632 97.708ZM480-480Z"/></svg>