<svg xmlns="http://www.w3.org/2000/svg" height="40" viewBox="0 -960 960 960" width="40"><path d="M217.273-133.174q-35.31 0-59.704-24.395-24.395-24.394-24.395-59.704t24.395-59.685q24.394-24.375 59.704-24.375t59.685 24.375q24.375 24.375 24.375 59.685t-24.375 59.704q-24.375 24.395-59.685 24.395Zm262.798 0q-35.085 0-59.618-24.395-24.532-24.394-24.532-59.704t24.461-59.685q24.461-24.375 59.547-24.375 35.085 0 59.618 24.375 24.532 24.375 24.532 59.685t-24.461 59.704q-24.461 24.395-59.547 24.395Zm262.656 0q-35.31 0-59.685-24.395-24.375-24.394-24.375-59.704t24.375-59.685q24.375-24.375 59.685-24.375t59.704 24.375q24.395 24.375 24.395 59.685t-24.395 59.704q-24.394 24.395-59.704 24.395ZM217.273-395.921q-35.31 0-59.704-24.461-24.395-24.461-24.395-59.547 0-35.085 24.395-59.618 24.394-24.532 59.704-24.532t59.685 24.461q24.375 24.461 24.375 59.547 0 35.085-24.375 59.618-24.375 24.532-59.685 24.532Zm262.798 0q-35.085 0-59.618-24.461-24.532-24.461-24.532-59.547 0-35.085 24.461-59.618 24.461-24.532 59.547-24.532 35.085 0 59.618 24.461 24.532 24.461 24.532 59.547 0 35.085-24.461 59.618-24.461 24.532-59.547 24.532Zm262.656 0q-35.31 0-59.685-24.461t-24.375-59.547q0-35.085 24.375-59.618 24.375-24.532 59.685-24.532t59.704 24.461q24.395 24.461 24.395 59.547 0 35.085-24.395 59.618-24.394 24.532-59.704 24.532ZM217.273-658.667q-35.31 0-59.704-24.375-24.395-24.375-24.395-59.685t24.395-59.704q24.394-24.395 59.704-24.395t59.685 24.395q24.375 24.394 24.375 59.704t-24.375 59.685q-24.375 24.375-59.685 24.375Zm262.798 0q-35.085 0-59.618-24.375-24.532-24.375-24.532-59.685t24.461-59.704q24.461-24.395 59.547-24.395 35.085 0 59.618 24.395 24.532 24.394 24.532 59.704t-24.461 59.685q-24.461 24.375-59.547 24.375Zm262.656 0q-35.31 0-59.685-24.375t-24.375-59.685q0-35.31 24.375-59.704 24.375-24.395 59.685-24.395t59.704 24.395q24.395 24.394 24.395 59.704t-24.395 59.685q-24.394 24.375-59.704 24.375Z"/></svg>