<svg xmlns="http://www.w3.org/2000/svg" height="40" viewBox="0 -960 960 960" width="40"><path d="M225.775-56.754q-37.571 0-63.296-25.793t-25.725-62.895v-513.096q0-56.817 33.25-100.016 33.25-43.199 86.532-56.627v-43.768q0-18.519 12.88-31.488 12.879-12.968 31.417-12.968h39.123q18.487 0 31.726 12.968 13.238 12.969 13.238 31.488v35.544h189.986v-35.544q0-18.519 12.888-31.488 12.887-12.968 32.076-12.968h39.297q18.821 0 31.892 12.968 13.071 12.969 13.071 31.488v43.768q51.918 13.382 85.597 56.652 33.678 43.27 33.678 99.887v513.2q0 37.102-26.267 62.895-26.267 25.793-62.913 25.793h-508.45Zm0-88.688h508.45v-513.152q0-31.06-21.631-53.346-21.632-22.285-53.427-22.285H300.754q-31.087 0-53.033 22.285-21.946 22.286-21.946 53.346v513.152Zm355.364-253.247v38.602q0 17.562 11.968 29.129 11.968 11.566 28.746 11.566 16.847 0 28.609-11.989 11.763-11.99 11.763-28.8v-76.015q0-18.821-12.879-31.892-12.879-13.071-31.418-13.071H338.47q-17.052 0-28.874 11.923-11.821 11.922-11.821 29.23 0 17.41 12.089 29.364 12.09 11.953 29.686 11.953h241.589ZM480-440Z"/></svg>