<svg xmlns="http://www.w3.org/2000/svg" height="40" viewBox="0 -960 960 960" width="40"><path d="M725.748-126.797q-20.377 0-40.662-7.938-20.286-7.939-35.332-24.257L439.268-371.239q-20.348 7.413-41.729 10.88-21.38 3.467-44.488 3.467-104.055 0-176.901-73.007t-72.846-177.166q0-37.573 11.037-71.826 11.037-34.252 29.202-64.623l149.705 149.891 77.006-73.058L216.841-819q29.4-18.388 64.427-29.726 35.026-11.339 71.783-11.339 106.445 0 180.19 73.792 73.744 73.791 73.744 179.208 0 21.991-3.427 43.507-3.428 21.516-10.921 42.95l209.581 209.326q15.652 15.321 24.05 35.304 8.399 19.984 8.399 41.416 0 21.687-8.145 41.549-8.145 19.861-24.304 35.354-16.319 14.891-36.163 22.877-19.844 7.985-40.307 7.985Zm-13.32-92.456q6 7.066 14.676 6.818 8.675-.247 15.759-7.132 6-6.686 6-15.024 0-8.339-6-15.43L489.008-503.304q14.05-21.667 22.978-49.594 8.927-27.928 8.927-54.167 0-65.612-46.623-112.622-46.624-47.009-107.059-51.77l87.957 89.29q8.812 8.812 8.431 21.337-.38 12.526-8.525 21.337L319.195-508.928q-8.724 8.812-21.216 8.812-12.491 0-20.697-8.812l-85.957-85.29q2.812 60.964 49.975 105.99 47.162 45.025 112.223 45.025 24.528 0 51.886-7.619 27.359-7.62 50.497-24.714l256.522 256.283ZM471.094-491.449Z"/></svg>