<svg xmlns="http://www.w3.org/2000/svg" height="40" viewBox="0 -960 960 960" width="40"><path d="M146.014-96.754q-36.14 0-62.7-26.56-26.56-26.56-26.56-62.7v-457.602q0-36.206 26.56-62.813t62.7-26.607h153.247v-93.334q0-35.972 26.56-62.616t62.7-26.644h182.958q36.14 0 62.7 26.644 26.56 26.644 26.56 62.616v93.334h153.247q36.205 0 62.812 26.607t26.607 62.813v457.602q0 36.14-26.607 62.7-26.607 26.56-62.812 26.56H146.014Zm242.507-636.282h182.958v-93.334H388.521v93.334Zm425.465 376.818H594.934v29.001q0 19.238-13.08 32.042-13.08 12.804-31.932 12.804H411.227q-18.569 0-31.365-12.887-12.796-12.888-12.796-32.076v-28.884H146.014v170.204h667.972v-170.204Zm-366.747-6.326h67.522v-67.521h-67.522v67.521Zm-301.225-73.847h221.052v-29.668q0-18.588 12.888-31.383 12.888-12.796 31.457-12.796h138.696q18.852 0 31.839 12.879 12.988 12.879 12.988 31.417v29.551h219.052v-207.225H146.014v207.225ZM480-396.638Z"/></svg>