<svg xmlns="http://www.w3.org/2000/svg" height="40" viewBox="0 -960 960 960" width="40"><path d="m480-421.812 118.102 117.435q11.507 12.174 28.641 12.254 17.134.079 29.547-12.376 11.905-11.789 11.905-28.8 0-17.011-11.905-29.505L538.188-480 656.29-598.102q11.507-11.507 11.706-28.641.199-17.134-11.668-29.547-12.44-11.905-29.427-11.905-16.987 0-28.799 11.905L480-538.188 362.565-656.29q-12.174-11.507-29.188-11.706-17.015-.199-28.761 11.668-12.572 12.44-12.572 29.427 0 16.987 12.572 28.799L421.812-480 304.377-362.565q-12.174 12.174-12.254 29.188-.079 17.015 12.376 28.761 11.789 12.572 28.8 12.572 17.011 0 29.505-12.572L480-421.812Zm.022 365.058q-87.394 0-164.712-33.313-77.318-33.314-134.624-90.619-57.305-57.306-90.619-134.602-33.313-77.296-33.313-164.69 0-87.65 33.372-165.074Q123.5-722.476 180.92-779.95q57.42-57.474 134.587-90.465 77.168-32.99 164.459-32.99 87.653 0 165.098 32.974 77.446 32.974 134.914 90.434 57.469 57.459 90.449 134.918 32.979 77.46 32.979 165.162 0 87.693-32.99 164.63-32.991 76.937-90.465 134.363-57.474 57.425-134.876 90.798-77.402 33.372-165.052 33.372Zm-.077-89.26q139.133 0 236.587-97.633 97.454-97.632 97.454-236.298 0-139.133-97.399-236.587-97.4-97.454-236.612-97.454-138.546 0-236.253 97.399-97.708 97.4-97.708 236.612 0 138.546 97.633 236.253 97.632 97.708 236.298 97.708ZM480-480Z"/></svg>