<svg xmlns="http://www.w3.org/2000/svg" height="40" viewBox="0 -960 960 960" width="40"><path d="m420.109-427.079-84.935-85.522q-13.083-12.305-31.411-11.931-18.328.373-30.712 12.717Q260-498.804 260-480.5q0 18.304 12.971 30.369l116.145 115.718q12.739 13.543 30.964 13.543 18.224 0 31.688-13.543l239.08-239.24q12.464-12.256 12.344-30.602-.12-18.346-12.385-31.441Q677.75-648 659.509-648t-30.704 12.304L420.109-427.079ZM189.058-99.797q-36.415 0-62.838-26.423-26.423-26.423-26.423-62.838v-581.884q0-36.481 26.423-62.951 26.423-26.469 62.838-26.469h581.884q36.481 0 62.951 26.469 26.469 26.47 26.469 62.951v581.884q0 36.415-26.469 62.838-26.47 26.423-62.951 26.423H189.058Zm0-89.261h581.884v-581.884H189.058v581.884Zm0-581.884v581.884-581.884Z"/></svg>