<svg xmlns="http://www.w3.org/2000/svg" height="40" viewBox="0 -960 960 960" width="40"><path d="M560.768-595.703q-18.949 0-31.956-13.041-13.007-13.041-13.007-31.373t13.007-31.589q13.007-13.258 31.956-13.258h288.79q18.522 0 31.409 13.375 12.888 13.374 12.888 31.706t-12.888 31.256q-12.887 12.924-31.409 12.924h-288.79Zm0 320q-18.949 0-31.956-13.041-13.007-13.041-13.007-31.373t13.007-31.589q13.007-13.257 31.956-13.257h288.79q18.522 0 31.409 13.374 12.888 13.374 12.888 31.706t-12.888 31.256q-12.887 12.924-31.409 12.924h-288.79ZM193.232-545.486 98.138-640.58q-13.21-12.304-13.21-30.754 0-18.449 13.21-31.42 12.971-12.543 31.086-12.543 18.116 0 31.326 12.543l64.008 63.341L368.899-784.42q13.224-12.877 31.206-12.377t31.707 13.377q12.71 13.224 12.71 31.467t-12.971 30.706L255.884-545.486q-13.37 13.37-31.446 13.37t-31.206-13.37Zm0 320L98.138-320.58q-13.21-12.304-13.21-30.754 0-18.449 13.21-31.42 12.971-12.543 31.086-12.543 18.116 0 31.326 12.543l64.008 63.341L368.899-464.42q13.224-12.877 31.206-12.377t31.707 13.377q12.71 13.224 12.71 31.467t-12.971 30.706L255.884-225.486q-13.37 13.37-31.446 13.37t-31.206-13.37Z"/></svg>