<svg xmlns="http://www.w3.org/2000/svg" height="40" viewBox="0 -960 960 960" width="40"><path d="m421.442-410.543-84.855-85.522q-12.923-12.304-31.722-12.304t-31.894 12.851Q260-482.507 260.04-463.63q.04 18.876 13.17 30.941l117.239 117.906q12.558 13.544 30.873 13.544 18.316 0 31.779-13.544l233.747-233.666q13.13-12.924 13.13-31.603 0-18.679-13.092-32.441-13.599-12.304-32.746-11.971-19.146.334-31.575 12.638L421.442-410.543Zm58.58 353.79q-87.394 0-164.709-33.334T180.709-180.71q-57.288-57.289-90.622-134.582-33.333-77.293-33.333-164.687 0-87.65 33.392-165.071 33.393-77.421 90.796-134.878 57.403-57.457 134.567-90.468 77.165-33.01 164.456-33.01 87.653 0 165.095 32.994 77.443 32.994 134.894 90.437 57.452 57.442 90.452 134.898 32.999 77.457 32.999 165.159 0 87.693-33.01 164.627-33.011 76.934-90.468 134.343-57.457 57.408-134.856 90.8-77.399 33.393-165.049 33.393Zm-.077-89.261q139.133 0 236.587-97.633 97.454-97.632 97.454-236.298 0-139.133-97.399-236.587-97.4-97.454-236.612-97.454-138.546 0-236.253 97.399-97.708 97.4-97.708 236.612 0 138.546 97.633 236.253 97.632 97.708 236.298 97.708ZM480-480Z"/></svg>