<svg xmlns="http://www.w3.org/2000/svg" height="40" viewBox="0 -960 960 960" width="40"><path d="M481.094-417.587 281.898-218.391q-13.971 13.97-32.087 13.97-18.115 0-31.42-13.97-13.97-13.305-13.97-31.254t13.97-31.253l199.957-200.196-200.717-199.957q-13.305-13.304-13.305-31.206t13.305-31.207q13.065-13.304 31.133-13.304 18.069 0 32.04 13.304L480-544.362l198.768-199.007q13.305-13.305 31.42-13.305 18.116 0 32.087 13.305 13.305 13.971 13.305 32.467t-13.305 31.8L543.173-479.906l199.196 199.863q13.211 13.21 13.211 31.326 0 18.115-13.211 31.086-12.971 13.21-31.039 13.21-18.069 0-30.373-13.21L481.094-417.587Z"/></svg>