<svg xmlns="http://www.w3.org/2000/svg" height="40" viewBox="0 -960 960 960" width="40"><path d="M675.224-254.58q-13.21 13.21-31.699 12.591-18.489-.62-30.793-13.685-13.13-13.558-13.177-32.333-.047-18.775 13.177-31.84l163.435-163.436-162.928-162.022q-12.971-13.21-12.471-31.366.5-18.155 13.471-31.365 13.21-12.544 31.612-12.544 18.403 0 31.613 12.544L871.08-513.087q13.13 13.131 13.13 31.207 0 18.075-13.13 31.206L675.224-254.58Zm-391.115-2.572L88.92-450.674q-13.13-13.131-13.13-31.206 0-18.076 13.13-31.207l196.616-196.855q13.305-13.304 31.866-12.924 18.562.38 31.786 13.018 13.304 13.464 13.304 32.286 0 18.822-13.304 31.888L185.753-482l161.769 161.769q12.304 13.13 12.804 31.452.5 18.323-12.804 31.627-13.464 13.304-31.786 13.304-18.323 0-31.627-13.304Z"/></svg>