<svg xmlns="http://www.w3.org/2000/svg" height="40" viewBox="0 -960 960 960" width="40"><path d="M789.102-85.812 478.775-395.979l-98.239 98.24q8.587 16.949 11.347 32.411 2.761 15.461 2.761 34.183 0 70.307-47.434 117.729-47.434 47.423-117.757 47.423-70.562 0-117.837-47.434-47.275-47.434-47.275-117.757 0-70.562 47.303-117.957 47.303-47.395 117.849-47.395 16.886 0 33.892 3.667 17.006 3.667 34.274 12.442l98.001-96.906-99.334-99.334q-16.094 7.442-33.047 9.775-16.953 2.333-33.786 2.333-70.546 0-117.849-47.434T64.341-729.75q0-70.562 47.314-117.956 47.315-47.395 117.877-47.395 70.323 0 117.718 47.422 47.394 47.423 47.394 117.969 0 18.722-2.014 34.73-2.015 16.009-9.428 31.625l492.334 491.428q16.985 17.66 16.485 43.538-.5 25.877-17.492 42.577-17.886 16.986-43.124 16.986-25.238 0-42.303-16.986ZM609.326-521.623l-84.833-85.022L791.29-873.521q16.981-16.986 42.225-16.986t42.553 16.992q17.548 17.232 17.548 42.47t-17.225 42.197L609.326-521.623ZM229.341-647.92q33.166 0 57.674-24.237 24.507-24.236 24.507-57.402 0-33.405-24.356-57.793-24.356-24.388-57.522-24.388-33.405 0-57.793 24.237-24.388 24.236-24.388 57.641 0 33.166 24.237 57.554 24.236 24.388 57.641 24.388Zm250.768 201.456q13.116 0 22.206-9.424 9.091-9.424 9.091-22.539 0-13.116-9.091-22.087-9.09-8.971-22.206-8.971t-22.42 8.971q-9.305 8.971-9.305 22.087 0 13.115 9.305 22.539 9.304 9.424 22.42 9.424ZM229.341-149.355q33.166 0 57.674-24.236 24.507-24.236 24.507-57.402 0-33.405-24.356-57.793-24.356-24.388-57.522-24.388-33.405 0-57.793 24.236-24.388 24.237-24.388 57.642 0 33.166 24.237 57.554 24.236 24.387 57.641 24.387Z"/></svg>