<svg xmlns="http://www.w3.org/2000/svg" height="40" viewBox="0 -960 960 960" width="40"><path d="M169.819-40.305q-36.631 0-63.025-26.655-26.395-26.655-26.395-62.525v-568.139q0-18.203 12.91-31.25 12.909-13.046 31.452-13.046t31.801 13.046q13.257 13.047 13.257 31.25v568.139h440.138q18.821 0 31.892 12.921 13.071 12.921 13.071 31.663t-13.071 31.669q-13.071 12.927-31.892 12.927H169.819Zm169.433-169.354q-36.565 0-62.912-26.727-26.348-26.728-26.348-62.533v-532.929q0-35.871 26.348-62.526 26.347-26.654 62.912-26.654h411.596q36.206 0 62.813 26.654 26.607 26.655 26.607 62.526v532.929q0 35.805-26.607 62.533-26.607 26.727-62.813 26.727H339.252Zm0-89.26h411.596v-532.929H339.252v532.929Zm0 0v-532.929 532.929Z"/></svg>