<svg xmlns="http://www.w3.org/2000/svg" height="40" viewBox="0 -960 960 960" width="40"><path d="M262.992-96.754q-35.871 0-62.645-26.56t-26.774-62.7v-554.023h-7.334q-18.282 0-31.17-13.044-12.888-13.044-12.888-31.706t12.88-31.586q12.879-12.924 31.178-12.924h180.362q0-18.022 13.007-30.098t31.196-12.076H570.29q18.169 0 31.266 11.985 13.096 11.984 13.096 30.189h179.945q18.841 0 31.911 13.089 13.071 13.088 13.071 31.535 0 18.782-13.071 31.709-13.07 12.927-31.892 12.927h-7.334v554.023q0 36.14-26.607 62.7-26.607 26.56-62.812 26.56H262.992Zm0-643.283v554.023h434.871v-554.023H262.992Zm0 0v554.023-554.023ZM480.761-401.87l83.138 83.566q12.987 13.159 31.359 13.159 18.373 0 31.837-12.947 13.441-12.835 13.481-31.846.04-19.011-13.214-31.163l-83.138-84.232 83.138-84.9q13.174-12.447 13.214-31.415.04-18.968-13.428-31.272-13.032-12.856-31.507-12.856t-31.503 12.747l-83.377 84.232-82.899-84.232q-12.246-13.493-31.164-13.12-18.918.373-32.387 13.554-12.833 12.645-12.913 31.145-.079 18.499 13 31.645l83.566 84.472-83.566 83.565q-12.92 13.192-12.92 31.621 0 18.43 12.807 32.081 13.558 12.921 32.111 12.921 18.553 0 31.466-13.159l82.899-83.566Z"/></svg>