<svg xmlns="http://www.w3.org/2000/svg" height="40" viewBox="0 -960 960 960" width="40"><path d="M480.321-335.319q-8.512 0-16.529-3.362-8.016-3.362-14.451-9.848L286.167-511.464q-13.065-13.304-12.685-31.706.381-18.402 14.352-32.253 13.304-13.185 31.253-12.931 17.949.253 31.92 13.558l84.79 86.457v-304.85q0-18.801 13.212-31.962 13.211-13.16 31.658-13.16 18.782 0 31.586 13.16 12.805 13.161 12.805 31.962v304.85l86.457-86.457q13.304-13.305 31.586-13.558 18.283-.254 31.587 13.264 13.304 13.518 13.304 31.92t-13.304 31.706L511.753-348.529q-6.428 6.465-14.725 9.837-8.298 3.373-16.707 3.373ZM220.492-131.457q-35.805 0-62.532-26.418-26.728-26.418-26.728-63.081v-103.421q0-18.487 13.211-31.726 13.212-13.238 31.659-13.238 18.782 0 31.586 13.238 12.804 13.239 12.804 31.709v103.518h518.697v-103.518q0-18.47 13.044-31.709 13.044-13.238 31.706-13.238t31.586 13.238q12.924 13.239 12.924 31.709v103.518q0 36.63-26.811 63.025-26.811 26.394-62.449 26.394H220.492Z"/></svg>