<svg xmlns="http://www.w3.org/2000/svg" height="40" viewBox="0 -960 960 960" width="40"><path d="M312.145-272.761h336.377q16.537 0 28.145-11.711 11.608-11.71 11.608-28.398t-11.608-28.376q-11.608-11.688-28.145-11.688H312.145q-17.187 0-28.804 11.636-11.616 11.635-11.616 28.395 0 16.759 11.616 28.45 11.617 11.692 28.804 11.692Zm126.008-274.934-43.443-43.203q-11.772-11.189-28.31-11.402-16.538-.214-27.647 10.841-11.934 11.883-11.934 28.432t11.855 27.737l108.333 108.761q12.601 13.543 30.853 13.543 18.252 0 31.799-13.543L619.326-535.29q11.228-11.129 11.208-27.655-.02-16.526-11.187-28.36-11.876-11.209-28.253-10.995-16.376.213-27.804 11.402L518.326-546.6v-144.965q0-16.537-11.636-28.145-11.636-11.609-28.395-11.609t-28.451 11.609q-11.691 11.608-11.691 28.145v143.87Zm41.563 490.941q-87.088 0-164.403-33.333-77.315-33.334-134.604-90.622-57.288-57.289-90.622-134.669-33.333-77.381-33.333-164.6 0-87.9 33.392-165.196 33.393-77.296 90.92-134.823 57.527-57.528 134.605-90.468 77.079-32.94 163.998-32.94 87.949 0 165.475 32.924 77.527 32.924 134.894 90.436 57.368 57.513 90.368 134.942 32.999 77.428 32.999 165.492 0 87.387-32.94 164.213-32.94 76.827-90.468 134.343-57.527 57.516-134.898 90.909-77.372 33.392-165.383 33.392Zm.229-89.26q139.133 0 236.587-97.633 97.454-97.632 97.454-236.298 0-139.133-97.399-236.587-97.4-97.454-236.612-97.454-138.546 0-236.253 97.399-97.708 97.4-97.708 236.612 0 138.546 97.633 236.253 97.632 97.708 236.298 97.708ZM480-480Z"/></svg>