<svg xmlns="http://www.w3.org/2000/svg" height="40" viewBox="0 -960 960 960" width="40"><path d="M348.697-152.768q-32.243 0-55.06-23.127-22.818-23.127-22.818-54.199 0-33.072 22.837-55.369 22.837-22.297 55.08-22.297 32.242 0 54.539 22.128 22.297 22.128 22.297 55.465 0 31.336-22.316 54.368-22.317 23.031-54.559 23.031Zm263.437 0q-32.219 0-54.962-23.127-22.744-23.127-22.744-54.199 0-33.072 22.78-55.369 22.78-22.297 54.943-22.297 32.261 0 54.645 22.128 22.385 22.128 22.385 55.465 0 31.336-22.414 54.368-22.414 23.031-54.633 23.031ZM348.697-402.623q-32.243 0-55.06-22.781-22.818-22.78-22.818-55.062 0-32.476 22.837-54.693 22.837-22.218 55.08-22.218 32.242 0 54.539 22.277 22.297 22.276 22.297 54.633 0 32.356-22.316 55.1-22.317 22.744-54.559 22.744Zm263.437 0q-32.219 0-54.962-22.781-22.744-22.78-22.744-55.062 0-32.476 22.78-54.693 22.78-22.218 54.943-22.218 32.261 0 54.645 22.277 22.385 22.276 22.385 54.633 0 32.356-22.414 55.1t-54.633 22.744ZM348.697-652.24q-32.243 0-55.06-22.78-22.818-22.78-22.818-55.062 0-32.381 22.837-54.765 22.837-22.385 55.08-22.385 32.242 0 54.539 22.414 22.297 22.414 22.297 54.753 0 32.338-22.316 55.082-22.317 22.743-54.559 22.743Zm263.437 0q-32.219 0-54.962-22.78-22.744-22.78-22.744-55.062 0-32.381 22.78-54.765 22.78-22.385 54.943-22.385 32.261 0 54.645 22.414 22.385 22.414 22.385 54.753 0 32.338-22.414 55.082-22.414 22.743-54.633 22.743Z"/></svg>