<svg xmlns="http://www.w3.org/2000/svg" height="40" viewBox="0 -960 960 960" width="40"><path d="M180.985-178.152h54.181L640.48-584.531l-54.181-54.18-405.314 406.378v54.181Zm624.124-454.139L633.965-803.703l44.578-44.816q24.052-24.053 58.835-23.879 34.782.174 59.514 24.427l53.992 54.753q24.731 24.413 23.88 58.268-.851 33.855-24.761 57.764l-44.894 44.895ZM142.044-95.029q-19.281 0-31.85-12.901-12.57-12.9-12.57-31.27v-109.243q0-8.773 3.232-16.864 3.231-8.09 9.311-14.17l477.465-477.226 171.144 170.745L282.55-108.24q-6.986 6.986-15.008 10.098-8.021 3.112-16.463 3.112H142.044Zm472.037-516.139-27.782-27.543 54.181 54.18-26.399-26.637Z"/></svg>