<svg xmlns="http://www.w3.org/2000/svg" height="40" viewBox="0 -960 960 960" width="40"><path d="M212.659-56.754q-36.14 0-62.7-26.56-26.56-26.56-26.56-62.7v-667.972q0-36.205 26.56-62.812t62.7-26.607H506.29q18.273 0 34.832 7.169 16.559 7.17 28.82 19.504l211.486 212.58q12.188 12.06 19.431 28.607 7.242 16.547 7.242 34.805v98.842h-89.419v-84.392H535.71q-18.853 0-31.908-12.888-13.055-12.887-13.055-32.076v-182.732H212.659v667.972h278.762v89.26H212.659Zm0-89.26v-667.972 667.972Zm500.893-200.414 46.637 45.638-137.001 136.521v42.813h42.547l137.056-136.066 45.608 44.702-143.001 143q-6.059 6.08-14.338 9.573-8.279 3.493-16.908 3.493h-92.786q-9.423 0-16.351-6.899-6.927-6.898-6.927-15.963v-93.203q0-8.202 3.192-16.002 3.192-7.8 9.938-14.751l142.334-142.856ZM848.399-212.82 713.552-346.428l64.377-64.376q13.383-13.544 31.333-13.544 17.949 0 31.92 13.544l71.354 70.956q12.384 13.221 12.384 31.664 0 18.444-12.384 30.988l-64.137 64.376Z"/></svg>