<svg xmlns="http://www.w3.org/2000/svg" height="40" viewBox="0 -960 960 960" width="40"><path d="M479.758-265.029q20.648 0 33.637-12.668 12.989-12.667 12.989-33.315 0-20.647-12.748-33.756-12.747-13.109-33.394-13.109-20.648 0-33.637 12.922-12.989 12.921-12.989 33.569 0 20.647 12.747 33.502 12.748 12.855 33.395 12.855Zm2.909-171.08q18.782 0 31.586-12.887 12.805-12.888 12.805-32.076v-166.994q0-18.538-12.921-31.417-12.922-12.879-31.584-12.879t-31.709 12.879q-13.047 12.879-13.047 31.417v166.994q0 19.188 13.212 32.076 13.211 12.887 31.658 12.887Zm-2.773 379.355q-87.578 0-164.737-33.333-77.159-33.334-134.448-90.622-57.288-57.289-90.622-134.563-33.333-77.274-33.333-165.039 0-87.78 33.392-164.969 33.393-77.19 90.92-134.717 57.527-57.528 134.499-90.468 76.972-32.94 164.438-32.94 87.828 0 165.248 32.924 77.42 32.924 134.787 90.436 57.368 57.513 90.368 134.942 32.999 77.428 32.999 165.315 0 87.876-32.94 164.546-32.94 76.671-90.468 134.064-57.527 57.394-134.898 90.909-77.372 33.515-165.205 33.515Zm.385-89.26q138.799 0 236.253-97.633 97.454-97.632 97.454-236.632 0-138.799-97.274-236.253-97.275-97.454-236.737-97.454-138.546 0-236.253 97.274-97.708 97.275-97.708 236.737 0 138.546 97.633 236.253 97.632 97.708 236.632 97.708ZM480-480Z"/></svg>