<svg xmlns="http://www.w3.org/2000/svg" height="40" viewBox="0 -960 960 960" width="40"><path d="M479.766-123.689q-16.681 0-32.437-5.616-15.755-5.616-28.587-18.065l-65.987-61.158q-115.399-106.334-205.7-209.733Q56.754-521.66 56.754-644.138q0-100.462 67.91-167.999 67.91-67.537 166.846-67.537 55.12 0 103.881 24.044 48.761 24.043 84.37 66.095 38.942-42.052 85.703-66.095 46.761-24.044 102.384-24.044 99.599 0 167.618 67.537 68.019 67.537 68.019 167.999 0 122.478-90.993 225.997-90.993 103.518-204.377 209.091l-67.229 61.881q-12.756 12.43-28.497 17.955-15.74 5.525-32.623 5.525ZM442.08-691.478q-20.891-39.131-61.746-69.033-40.855-29.902-88.197-29.902-63.115 0-104.619 41.086t-41.504 105.712q0 55.505 38.002 117.695 38.002 62.189 91.332 120.708 53.329 58.519 110.322 108.981 56.994 50.462 93.788 83.949 36.886-33.761 93.885-84.641 56.999-50.881 110.6-109.178 53.601-58.297 91.941-120.283 38.341-61.986 38.341-117.727 0-64.085-41.729-105.194-41.73-41.108-104.858-41.108-47.942 0-89.417 29.569t-61.874 69.366q-6.15 11.174-15.765 16.594-9.615 5.42-21.029 5.42-11.244 0-21.088-5.42-9.845-5.42-16.385-16.594ZM480-501.761Z"/></svg>