<svg xmlns="http://www.w3.org/2000/svg" height="40" viewBox="0 -960 960 960" width="40"><path d="M435.703-353.833q-82.145-15.638-134.406-79.594-52.261-63.956-52.261-146.493 0-96.8 67.413-164.255t163.502-67.455q96.088 0 163.884 67.455Q711.63-676.72 711.63-579.92q0 82.537-52.594 146.493-52.594 63.956-134.072 79.594v87.167h39.116q16.904 0 28.894 11.689 11.99 11.689 11.99 28.87 0 17.361-11.99 29.198-11.99 11.836-28.894 11.836h-39.116v34.45q0 18.363-13.272 31.41-13.272 13.046-31.809 13.046-18.253 0-31.216-13.046-12.964-13.047-12.964-31.41v-34.45h-39.022q-17.727 0-29.352-11.768-11.626-11.769-11.626-29.318 0-17.393 11.626-28.95 11.625-11.557 29.352-11.557h39.022v-87.167Zm44.062-84.464q59.132 0 100.869-41.168 41.736-41.168 41.736-100.3t-41.549-100.869q-41.548-41.736-100.68-41.736-59.132 0-100.488 41.549-41.356 41.548-41.356 100.68 0 59.132 41.168 100.488t100.3 41.356Z"/></svg>