<svg xmlns="http://www.w3.org/2000/svg" height="40" viewBox="0 -960 960 960" width="40"><path d="M793.848-173.999H304.346q-36.205 0-62.812-26.395-26.607-26.394-26.607-63.025v-604.516q0-36.14 26.607-62.7 26.607-26.56 62.812-26.56H586.79q18.202 0 34.698 7.163 16.495 7.163 28.954 19.351l206.152 207.246q12.13 13.102 19.322 29.324 7.192 16.221 7.192 34.995v395.697q0 36.631-26.644 63.025-26.644 26.395-62.616 26.395Zm0-487.878H653.283q-28.063 0-47.731-19.598-19.667-19.598-19.667-47.561v-138.899H304.346v604.516h489.502v-398.458ZM134.754-4.566q-36.14 0-62.7-26.348-26.56-26.347-26.56-62.912v-566.248q0-18.538 13.21-31.417 13.212-12.879 31.66-12.879 18.446 0 31.418 12.879 12.972 12.879 12.972 31.417v566.248H582.61q18.487 0 31.725 13.104 13.238 13.105 13.238 31.857 0 18.468-13.238 31.384Q601.097-4.566 582.61-4.566H134.754Zm169.592-863.369v214.029-214.029V-263.419v-604.516Z"/></svg>