<svg xmlns="http://www.w3.org/2000/svg" height="40" viewBox="0 -960 960 960" width="40"><path d="M313.964-230.391q-78.913 0-121.457-57.504-42.543-57.504-42.116-133.322v-.798l-16.253-25.014q-14.428-21.957-39.087-84.605-24.66-62.649-24.66-148.924 0-107.08 53.986-178.398 53.985-71.319 135.304-71.319 87.804 0 139.199 77.543 51.395 77.544 51.395 172.254 0 54.478-14.257 101.713-14.257 47.236-28.17 83.193l5.348 8.695q9.833 17.109 23.456 49.522t13.623 65.71q0 60.522-38.598 100.888-38.597 40.366-97.713 40.366ZM204.079-498.76l120.726-25.588q14.587-38.239 26.355-81.217 11.768-42.979 11.768-75.471 0-60.348-27.087-111.12-27.087-50.772-75.841-50.772-43.232 0-72.747 45.109-29.514 45.109-29.514 118.855 0 68.421 18.525 115.732 18.526 47.312 27.815 64.472Zm110.124 181.021q21.174 0 34.95-15.782 13.775-15.783 13.775-38.921 0-16.174-7.707-34.247-7.706-18.072-15.453-31.833l-101.935 20.964q1.906 36.558 21.007 68.189 19.102 31.63 55.363 31.63ZM646.036-30.391q-59.116 0-97.38-40.366-38.265-40.366-38.265-100.888 0-34.297 13.337-66.29 13.337-31.992 24.236-48.942l5.014-8.695q-14.739-35.624-28.663-82.859-13.924-47.236-13.924-102.047 0-94.71 51.062-172.254 51.062-77.543 139.025-77.543 81.16 0 135.478 71.319 54.319 71.318 54.319 178.398 0 86.036-24.572 147.866-24.573 61.83-39.08 84.902l-16.348 26.015v.558q0 75.818-42.663 133.322-42.663 57.504-121.576 57.504Zm109.885-270.072q9.478-17.087 28.242-65.149Q802.928-413.674 802.928-480q0-72.71-29.848-117.819-29.848-45.109-73.08-45.109-47.754 0-75.008 50.772-27.253 50.772-27.253 111.598 0 31.406 11.369 73.732 11.37 42.326 27.073 83.754l119.74 22.609ZM645.558-117.739q36.261 0 55.348-32.583 19.087-32.584 21.261-68.316l-102.493-19.007q-7.08 13.666-14.508 31.927-7.427 18.261-7.427 32.957 0 25.218 13.322 40.12 13.323 14.902 34.497 14.902Z"/></svg>