<svg xmlns="http://www.w3.org/2000/svg" height="40" viewBox="0 -960 960 960" width="40"><path d="M625.055-150.819q-24.277 0-41.332-16.953-17.056-16.954-17.056-41.399v-484.163H418.238q-24.602 0-41.42-16.857Q360-727.049 360-751.132q0-24.281 16.957-41.165t41.18-16.884h413.334q24.192 0 40.951 16.73 16.759 16.731 16.759 40.729 0 24.277-16.759 41.333-16.759 17.055-41.023 17.055H682.514v484.232q0 24.654-16.73 41.469-16.73 16.814-40.729 16.814Zm-369.127 0q-24.397 0-41.419-16.953-17.023-16.954-17.023-41.465v-274.916h-68.094q-24.944 0-41.759-16.844-16.814-16.845-16.814-41.007t16.953-41.079Q104.726-600 129.195-600h253.334q23.946 0 40.709 16.743Q440-566.513 440-542.594q0 24.396-16.762 41.419-16.763 17.022-40.709 17.022h-69.196v274.857q0 24.848-16.743 41.663-16.743 16.814-40.662 16.814Z"/></svg>