<svg xmlns="http://www.w3.org/2000/svg" height="40" viewBox="0 -960 960 960" width="40"><path d="M420.094-184.754q-18.697 0-31.577-13.211-12.879-13.212-12.879-31.659 0-18.782 12.879-31.586 12.88-12.804 31.577-12.804h398.094q18.467 0 31.795 12.921 13.328 12.921 13.328 31.584 0 18.662-13.328 31.709-13.328 13.046-31.795 13.046H420.094Zm0-251.043q-18.697 0-31.577-13.212-12.879-13.211-12.879-31.658 0-18.782 12.879-31.586 12.88-12.805 31.577-12.805h398.094q18.467 0 31.795 12.922 13.328 12.921 13.328 31.583t-13.328 31.709q-13.328 13.047-31.795 13.047H420.094Zm0-250.856q-18.697 0-31.577-13.044-12.879-13.044-12.879-31.706t12.879-31.586q12.88-12.924 31.577-12.924h398.094q18.467 0 31.795 13.089 13.328 13.088 13.328 31.535 0 18.782-13.328 31.709t-31.795 12.927H420.094ZM182.985-144.029q-35.12 0-60.462-24.765-25.341-24.765-25.341-60.754 0-34.981 25.093-60.086 25.093-25.104 61.038-25.104 35.087 0 59.753 25.512 24.665 25.513 24.665 60.68 0 34.616-25.088 59.567-25.087 24.95-59.658 24.95Zm0-251.044q-35.12 0-60.462-25.229-25.341-25.23-25.341-60.716 0-34.629 25.409-59.816 25.41-25.187 61.055-25.187 34.237 0 59.161 25.366 24.924 25.367 24.924 60.328 0 34.962-25.088 60.108-25.087 25.146-59.658 25.146Zm-.666-250.855q-34.845 0-59.991-25.221-25.147-25.221-25.147-60.638 0-34.558 25.214-59.704t60.585-25.146q34.511 0 59.631 25.316 25.12 25.317 25.12 60.209t-25.283 60.038q-25.284 25.146-60.129 25.146Z"/></svg>