<svg xmlns="http://www.w3.org/2000/svg" height="40" viewBox="0 -960 960 960" width="40"><path d="M158.181-56.754q-14.518 0-24.69-10.01t-10.172-24.377q0-14.367 10.172-24.598 10.172-10.232 25.017-10.232h64.811v-25.645h-30q-13 0-21.5-8.5t-8.5-21.5q0-12.094 8.5-21.129 8.5-9.035 21.5-9.035h30v-24.974h-65.138q-14.518 0-24.69-10.01-10.172-10.011-10.172-24.377 0-14.367 10.172-24.598 10.172-10.232 24.69-10.232h90q18.367 0 31.361 12.993 12.994 12.994 12.994 31.362v35.645q0 18.851-12.994 31.603-12.994 12.752-31.361 12.752 18.367 0 31.361 12.955 12.994 12.956 12.994 31.907v35.138q0 19.066-12.994 31.964t-31.361 12.898h-90Zm-1.029-299.05q-14.017 0-23.925-9.909-9.908-9.908-9.908-23.925v-76.166q0-18.185 12.898-31.19Q149.115-510 168.181-510h55.138v-25.804H158.39q-14.727 0-24.899-9.847t-10.172-24.377q0-14.53 10.172-24.762 10.172-10.232 24.69-10.232h90q18.367 0 31.361 12.944T292.536-560v64.978q0 19.135-12.994 32.078Q266.548-450 248.181-450h-55.645v24.978h65.645q13.72 0 24.038 10.212 10.317 10.211 10.317 24.79 0 14.578-10.317 24.397-10.318 9.819-24.038 9.819H157.152Zm61.049-299.384q-14.578 0-24.73-9.839-10.152-9.839-10.152-24.267V-842.54h-29.124q-13.478 0-22.177-8.755t-8.699-21.955q0-12.623 8.699-21.889t22.206-9.266h64.986q14.086 0 23.706 9.897 9.62 9.898 9.62 23.428v181.562q0 14.652-10.311 24.491-10.312 9.839-24.024 9.839ZM423.5-193.181q-19.189 0-32.076-13.045-12.888-13.044-12.888-31.706t12.888-31.586q12.887-12.924 32.076-12.924h395.449q18.519 0 31.488 13.089 12.968 13.088 12.968 31.536 0 18.781-12.968 31.708-12.969 12.928-31.488 12.928H423.5Zm0-243.95q-19.189 0-32.076-13.211-12.888-13.212-12.888-31.659 0-18.782 12.888-31.586 12.887-12.804 32.076-12.804h395.449q18.519 0 31.488 12.921 12.968 12.921 12.968 31.584 0 18.662-12.968 31.709-12.969 13.046-31.488 13.046H423.5Zm0-244.188q-19.189 0-32.076-13.044-12.888-13.044-12.888-31.707 0-18.662 12.888-31.586 12.887-12.923 32.076-12.923h395.449q18.519 0 31.488 13.088 12.968 13.089 12.968 31.536 0 18.782-12.968 31.709-12.969 12.927-31.488 12.927H423.5Z"/></svg>