<svg xmlns="http://www.w3.org/2000/svg" height="40" viewBox="0 -960 960 960" width="40"><path d="M426.486-125.97Q310.667-236.275 237.931-311.212q-72.735-74.936-113.822-129.485-41.087-54.55-55.833-96.139-14.747-41.59-14.747-84.68 0-97.239 67.588-165.825 67.588-68.586 165.284-68.586 47.476 0 92.124 17.536 44.649 17.536 80.895 50.543l-39.855 195.029q-3.761 16.906 6.577 29.844 10.337 12.939 27.067 12.939h67.421L491.297-293.53q-1 7.745 6.167 8.761 7.166 1.016 9.833-5.824l75.102-261.226q4.362-16.058-5.582-30.181-9.943-14.123-27.331-14.123H481.87l68.297-229.044q28.318-15.427 59.721-23.094 31.402-7.666 64.281-7.666 96.847 0 164.987 68.595 68.141 68.596 68.141 165.791 0 41.327-14.321 81.901-14.322 40.575-53.482 94.871-39.161 54.296-108.788 130.192-69.627 75.896-180.315 186.976-12.37 12.131-28.08 19.163-15.71 7.033-33.572 7.127-18.29.094-34.239-6.265-15.949-6.358-28.014-18.394ZM142.79-621.533q0 30.085 10.902 61.098 10.903 31.013 39.149 68.978 28.246 37.965 75.583 88.132 47.337 50.166 119.823 119.036 2.935 3.761 7.962 2.346 5.027-1.415 6.117-6.106l20.175-183.713H412.5q-43.644-10.927-68.101-45.206-24.456-34.279-12.335-94.263l28.937-135.559q-17.603-8.409-36.227-14.063-18.625-5.655-38.588-5.655-60.219 0-101.808 42.148-41.588 42.147-41.588 102.827Zm675.087-.103q0-60.797-41.898-102.834-41.898-42.038-101.609-42.038-13.085 0-25.8 1.842-12.715 1.843-24.687 5.934l-24.79 81.457h3.334q43.195 7.21 63.862 41.699t2.29 98.786l-53.759 188.5q-1.944 4.986 3.07 8.044 5.015 3.059 11.08-1.781 55.899-54.327 92.508-94.157 36.609-39.83 58.123-71.605 21.515-31.776 29.896-58.47 8.38-26.694 8.38-55.377ZM668.579-536.79Zm-336.528-74.515Z"/></svg>