<svg xmlns="http://www.w3.org/2000/svg" height="40" viewBox="0 -960 960 960" width="40"><path d="M481.367-233.348q20.443 0 34.951-14.371 14.508-14.37 14.508-34.893 0-20.523-14.433-34.854-14.432-14.331-34.955-14.331-20.524 0-34.952 14.243-14.428 14.244-14.428 34.871 0 20.444 14.374 34.889 14.374 14.446 34.935 14.446Zm-1.473 176.594q-87.578 0-164.737-33.333-77.159-33.334-134.448-90.622-57.288-57.289-90.622-134.563-33.333-77.274-33.333-165.039 0-87.78 33.392-164.969 33.393-77.19 90.92-134.717 57.527-57.528 134.499-90.468 76.972-32.94 164.438-32.94 87.828 0 165.248 32.924 77.42 32.924 134.787 90.436 57.368 57.513 90.368 134.942 32.999 77.428 32.999 165.315 0 87.876-32.94 164.546-32.94 76.671-90.468 134.064-57.527 57.394-134.898 90.909-77.372 33.515-165.205 33.515Zm.385-89.26q138.799 0 236.253-97.633 97.454-97.632 97.454-236.632 0-138.799-97.274-236.253-97.275-97.454-236.737-97.454-138.546 0-236.253 97.274-97.708 97.275-97.708 236.737 0 138.546 97.633 236.253 97.632 97.708 236.632 97.708ZM480-480Zm2.604-175.297q25.732 0 46.078 15.791 20.347 15.791 20.347 40.951 0 23.61-14.254 41.528t-32.26 32.629q-24.189 20.587-43.544 45.239-19.355 24.652-19.355 55.377 0 14.632 11.274 24.609 11.274 9.977 27.321 9.977 15.774 0 27.285-10.706 11.511-10.707 15.758-27.436 3.891-20.169 17.056-37.361 13.165-17.192 29.264-30.845 24.02-21.572 40.415-49.594 16.395-28.023 16.395-59.292 0-54.316-41.598-89.055-41.598-34.739-96.861-34.739-39.304 0-74.962 16.826t-58.499 48.469q-8.558 12.436-7.026 27.252 1.533 14.815 13.273 23.617 14.995 9.459 32.014 5.285 17.02-4.174 28.376-17.841 11.022-14.885 27.811-22.783 16.789-7.898 35.692-7.898Z"/></svg>