<svg xmlns="http://www.w3.org/2000/svg" height="40" viewBox="0 -960 960 960" width="40"><path d="M543.797-758.609q-34.37 0-58.395-24.224-24.025-24.225-24.025-58.315 0-34.25 24.025-58.475t58.275-24.225q34.25 0 58.395 24.232 24.145 24.233 24.145 58.348 0 34.21-24.153 58.435-24.152 24.224-58.267 24.224ZM333-23.805q-21.365 0-34.494-15.199-13.129-15.199-8.318-37.264l113.906-579.906q4.92-28.971 27.077-44.63 22.157-15.66 46.71-15.66 23.488 0 44.034 10.66 20.547 10.659 33.41 30.565l39.095 64q16.849 28.718 44.24 50.16 27.39 21.442 62.434 34.884v-38.254q0-13.621 9.462-23.615 9.461-9.994 23.241-9.994 13.779 0 23.574 9.994 9.795 9.994 9.795 23.615v507.942q0 13.78-9.795 23.24-9.795 9.462-23.574 9.462-13.78 0-23.241-9.461-9.462-9.462-9.462-23.241v-380.138q-43.551-10.508-83.319-33.95-39.768-23.442-72.008-57.029l-22.695 113.465 56.246 52.819q12.638 12.369 20.243 29.666 7.605 17.297 7.605 35.587v229.58q0 17.493-12.886 30.097-12.886 12.605-30.551 12.605-17.664 0-30.15-12.605-12.485-12.605-12.485-30.097v-204.696l-79.327-75.993-64.362 287.638q-3.413 15.21-16.104 25.482Q348.611-23.805 333-23.805Zm-45.203-395.492 56.196-282.261-46.775-10q-34.718-6.985-63.913 12.218-29.196 19.203-35.862 54.347l-30 157q-3.413 17.21 7.112 33.634t27.313 18.705l85.929 16.357Z"/></svg>