<svg xmlns="http://www.w3.org/2000/svg" height="40" viewBox="0 -960 960 960" width="40"><path d="M482.701-268.776q17.881 0 30.322-12.547 12.441-12.548 12.441-30.822v-165.152q0-17.624-12.543-30.164Q500.378-520 482.568-520q-17.81 0-30.493 12.539-12.683 12.54-12.683 30.164v165.152q0 18.274 12.714 30.822 12.713 12.547 30.595 12.547Zm-2.816-331.513q19.017 0 31.841-12.501 12.825-12.5 12.825-31.208 0-20.203-12.689-32.798-12.689-12.595-31.675-12.595-19.915 0-32.326 12.42-12.412 12.419-12.412 32.209 0 19.224 12.71 31.848 12.71 12.625 31.726 12.625Zm.009 543.535q-87.578 0-164.737-33.333-77.159-33.334-134.448-90.622-57.288-57.289-90.622-134.563-33.333-77.274-33.333-165.039 0-87.78 33.392-164.969 33.393-77.19 90.92-134.717 57.527-57.528 134.499-90.468 76.972-32.94 164.438-32.94 87.828 0 165.248 32.924 77.42 32.924 134.787 90.436 57.368 57.513 90.368 134.942 32.999 77.428 32.999 165.315 0 87.876-32.94 164.546-32.94 76.671-90.468 134.064-57.527 57.394-134.898 90.909-77.372 33.515-165.205 33.515Zm.385-89.26q138.799 0 236.253-97.633 97.454-97.632 97.454-236.632 0-138.799-97.274-236.253-97.275-97.454-236.737-97.454-138.546 0-236.253 97.274-97.708 97.275-97.708 236.737 0 138.546 97.633 236.253 97.632 97.708 236.632 97.708ZM480-480Z"/></svg>