<svg xmlns="http://www.w3.org/2000/svg" height="40" viewBox="0 -960 960 960" width="40"><path d="M186.014-49.63q-36.14 0-62.7-27.349-26.56-27.347-26.56-63.246v-486.072q-15.92-7.115-27.96-28.019-12.04-20.903-12.04-46.147v-119.849q0-35.964 26.56-62.692 26.56-26.727 62.7-26.727h667.972q35.964 0 62.692 26.727 26.727 26.728 26.727 62.692v119.849q0 25.244-12.119 46.147-12.12 20.904-27.881 28.019v486.072q0 35.899-26.727 63.246Q809.95-49.63 773.986-49.63H186.014Zm0-561.559v472.298h587.972v-472.298H186.014Zm627.972-89.42v-119.703H146.014v119.703h667.972ZM391.942-398.341h176.847q16.986 0 29.095-12.248 12.109-12.247 12.109-29.438 0-17.662-12.109-29.549-12.109-11.888-29.095-11.888H391.942q-17.732 0-29.754 11.957-12.021 11.957-12.021 29.519 0 17.46 12.021 29.554 12.022 12.093 29.754 12.093Zm-205.928 259.45v-472.298 472.298Z"/></svg>