<svg xmlns="http://www.w3.org/2000/svg" height="40" viewBox="0 -960 960 960" width="40"><path d="M277.944-394.587q-35.263 0-60.284-25.128-25.022-25.128-25.022-60.214 0-35.085 24.95-60.284 24.95-25.2 60.214-25.2 35.263 0 60.343 25.128 25.079 25.128 25.079 60.214 0 35.085-25.008 60.284-25.008 25.2-60.272 25.2Zm-.132 176.42q-108.998 0-185.296-76.523-76.298-76.523-76.298-185.465 0-108.943 76.298-185.31 76.298-76.368 185.296-76.368 74.484 0 134.01 35.877 59.526 35.877 91.756 100.833h335.806q8.618 0 16.398 3.232 7.78 3.232 14.595 9.312l87.398 87.159q6.298 6.937 9.634 15.332 3.337 8.395 3.337 16.808t-3.67 16.475q-3.67 8.062-9.968 14.225L825.174-318.232q-6.049 6.148-13.252 9.2-7.202 3.051-14.464 3.515-7.669.321-15.095-1.214-7.425-1.534-13.602-6.929l-57.246-41.899-58.66 43.138q-5.977 4.573-12.804 6.732t-13.788 2.159q-6.747 0-13.989-1.952-7.241-1.953-11.941-6.606L544.8-354.877h-41.264q-29.108 58.717-87.339 97.714-58.23 38.996-138.385 38.996Zm-.149-86.311q60.233 0 107.437-38.732 47.205-38.732 60.364-97.739h128.369l52.348 40.681q-.667 0 0 0 0 .333.214.167.214-.167-.214-.167l86-62 77.921 58.094h-.334.334l76.623-69.695q.073 0 .29.333.217.333-.29-.333h.254-.254l-44.942-45.17q0-.012.04-.012H445.384q-11.521-55.782-58.168-96.127-46.646-40.344-109.404-40.344-72.805 0-124.044 51.349-51.239 51.35-51.239 124.309 0 72.958 51.196 124.172 51.195 51.214 123.938 51.214Z"/></svg>