<svg xmlns="http://www.w3.org/2000/svg" height="40" viewBox="0 -960 960 960" width="40"><path d="M378.348-149.036q-97.161 0-164.034-66.931-66.872-66.931-66.872-164.091 0-97.161 66.914-164.367 66.913-67.205 164.05-67.205 34.811 0 67.307 10.416t62.041 28.453l152.559-152.558h-53.407q-17.646-.798-30.294-13.556t-12.648-30.846q0-18.249 13.047-31.633 13.047-13.385 31.25-13.385h160.761q18.922 0 31.562 12.72 12.641 12.72 12.641 31.642v160.761q0 18.203-13.272 31.25t-31.809 13.047q-18.253 0-30.778-12.609-12.525-12.608-13.402-30.333v-53.646L571.406-509.348q18.789 28.753 28.709 61.97 9.921 33.219 9.921 67.378 0 97.136-67.264 164.05-67.264 66.914-164.424 66.914Zm.198-373.334q-59.132 0-100.488 41.549-41.356 41.548-41.356 100.68 0 59.132 41.169 100.488 41.168 41.356 100.3 41.356t100.868-41.168q41.737-41.168 41.737-100.3t-41.549-100.869q-41.549-41.736-100.681-41.736Z"/></svg>