<svg xmlns="http://www.w3.org/2000/svg" height="40" viewBox="0 -960 960 960" width="40"><path d="M151.051-221.189q-18.854 0-31.909-13.044t-13.055-31.706q0-18.662 13.055-31.586t31.909-12.924H810.71q18.204 0 31.25 13.089 13.047 13.088 13.047 31.535 0 18.782-13.047 31.709-13.046 12.927-31.25 12.927H151.051Zm0-214.608q-18.854 0-31.909-13.212-13.055-13.211-13.055-31.658 0-18.782 13.055-31.586 13.055-12.805 31.909-12.805H810.71q18.204 0 31.25 12.922 13.047 12.921 13.047 31.583t-13.047 31.709q-13.046 13.047-31.25 13.047H151.051Zm0-213.754q-18.854 0-31.909-13.212-13.055-13.211-13.055-31.658 0-18.782 13.055-31.666t31.909-12.884H810.71q18.204 0 31.25 13.001 13.047 13.001 13.047 31.663 0 18.663-13.047 31.709-13.046 13.047-31.25 13.047H151.051Z"/></svg>