<svg xmlns="http://www.w3.org/2000/svg" height="40" viewBox="0 -960 960 960" width="40"><path d="M479.958-124.993q-28.69 0-48.722-20.268t-20.032-48.729q0-28.443 20.171-48.759 20.171-20.315 48.667-20.315 28.69 0 48.722 20.451t20.032 48.884q0 28.432-20.159 48.584-20.159 20.152-48.679 20.152Zm0-286.211q-28.69 0-48.722-20.171t-20.032-48.667q0-28.69 20.171-48.722t48.667-20.032q28.69 0 48.722 20.159t20.032 48.679q0 28.69-20.159 48.722t-48.679 20.032Zm0-285.732q-28.69 0-48.722-20.382-20.032-20.381-20.032-49.003 0-28.621 20.171-48.733t48.667-20.112q28.69 0 48.722 20.278 20.032 20.279 20.032 48.85 0 28.67-20.159 48.886t-48.679 20.216Z"/></svg>