<svg xmlns="http://www.w3.org/2000/svg" height="40" viewBox="0 -960 960 960" width="40"><path d="M480.09-84.493q-38.316 0-65.692-27.438-27.376-27.437-27.376-65.967 0-38.529 27.504-65.54 27.503-27.011 66.014-27.011 38.511 0 65.474 27.349 26.964 27.349 26.964 65.753 0 38.405-27.286 65.629-27.286 27.225-65.602 27.225Zm-.117-282.333q-39.029 0-65.918-26.907-26.888-26.908-26.888-65.926v-320.327q0-39.258 26.916-66.244 26.915-26.987 65.944-26.987t65.918 26.987q26.888 26.986 26.888 66.244v320.327q0 39.018-26.916 65.926-26.915 26.907-65.944 26.907Z"/></svg>