<svg xmlns="http://www.w3.org/2000/svg" height="40" viewBox="0 -960 960 960" width="40"><path d="M479.176-135.66q-143.024 0-243.288-100.478-100.264-100.478-100.264-242.768 0-142.29 100.264-243.942Q336.152-824.5 479.362-824.5q80.585 0 146.492 33.106 65.907 33.105 115.987 90.003v-81.761q0-17.191 11.828-29.269 11.828-12.079 29.388-12.079 17.401 0 29.773 12.079 12.373 12.078 12.373 29.269v214.267q0 19.021-13.235 31.992-13.235 12.972-31.888 12.972H565.493q-17.089 0-29.098-12.229-12.01-12.229-12.01-29.642 0-17.311 12.078-29.281 12.079-11.971 29.269-11.971h136q-37.92-57.362-94.019-91.177-56.1-33.816-128.604-33.816-106.653 0-180.439 73.438-73.786 73.438-73.786 179.615 0 106.977 73.786 180.52 73.786 73.544 180.439 73.544 69.42 0 129.677-35.017 60.257-35.018 92.968-96.788 9.439-15.502 25.933-21.682 16.494-6.18 33.512.045 17.134 6.065 24.286 22.029 7.153 15.963-.405 31.267-43.558 86.95-125.615 138.178-82.057 51.228-180.289 51.228Z"/></svg>