<svg xmlns="http://www.w3.org/2000/svg" height="40" viewBox="0 -960 960 960" width="40"><path d="M186.014-96.754q-37.67 0-63.465-25.795t-25.795-63.465v-587.972q0-37.735 25.795-63.577t63.465-25.842h469.138q18.259 0 34.806 7.123 16.547 7.123 28.607 19.55l118.167 118.167q12.427 12.06 19.55 28.607 7.123 16.547 7.123 34.806v175.291l-89.419 89.42v-263.314L653.727-773.986H186.014v587.972h384.878l-89.42 89.26H186.014Zm293.865-141.79q48.498 0 82.566-33.948 34.069-33.948 34.069-82.445 0-48.497-33.948-82.566t-82.445-34.069q-48.498 0-82.566 33.948-34.069 33.948-34.069 82.446 0 48.497 33.948 82.565 33.948 34.069 82.445 34.069ZM275.507-566.428h285.957q18.203 0 31.25-12.888 13.046-12.887 13.046-32.076v-73.768q0-18.538-13.046-31.417-13.047-12.879-31.25-12.879H275.507q-19.188 0-32.076 12.879-12.887 12.879-12.887 31.417v73.768q0 19.189 12.887 32.076 12.888 12.888 32.076 12.888ZM889.203-261.08 661.669-32.88q-6.844 6.394-15.099 10.007-8.254 3.612-16.763 3.612h-34.55q-8.874 0-15.768-6.79-6.895-6.792-6.895-15.846v-35.076q0-8.09 3.613-16.288 3.612-8.197 9.931-14.999l227.609-227.609 75.456 74.789Zm25.384-24.478-74.79-75.695 39.044-39.283q6.605-6.355 13.295-6.355 6.69 0 13.241 6.355l47.159 47.159q6.355 6.743 6.355 15.025 0 8.283-6.355 14.844l-37.949 37.95Zm-728.573 99.544v-587.972 587.972Z"/></svg>