<svg xmlns="http://www.w3.org/2000/svg" height="40" viewBox="0 -960 960 960" width="40"><path d="M556.92-56.754H403.08q-16.825 0-29.641-10.137-12.815-10.138-14.562-27.413l-14.427-95.073q-12.363-4.855-27.078-13.155-14.716-8.299-25.974-17.092l-88.072 39.348q-14.957 7.652-31.617 1.675-16.66-5.978-25.173-21.194l-76.97-137.85q-9.385-14.667-5.145-30.952 4.239-16.284 17.543-25.714l77.79-58.391q-.667-5.847-.88-14.183-.214-8.335-.214-15.09 0-6.002.214-13.52.213-7.518.88-14.273l-77.79-56.935q-14.065-9.877-17.543-26.343-3.479-16.466 5.239-31.403l76.905-136.507q9.225-14.544 25.134-20.409 15.909-5.866 31.293 1.119l86.696 38.855q11.016-8.152 26.574-16.953 15.557-8.801 28.521-13.909l14.094-94.696q1.413-17.116 14.379-27.333Q386.221-904.5 403.08-904.5h153.84q16.942 0 29.968 10.265 13.027 10.265 14.901 27.286l13.428 94.79q13.362 5.109 29.12 13.964 15.757 8.855 26.453 17.138l85.884-39.095q14.957-6.985 31.617-1.135 16.66 5.851 25.192 20.428l77.049 135.646q8.765 14.802 5.16 31.717-3.605 16.916-16.989 26.793l-79.79 56.456q.666 6.909 1.413 15.457.746 8.548.746 14.79 0 6.242-.786 14.457t-.946 14.456l78.268 56.87q13.305 10.233 17.21 26.511 3.906 16.279-4.678 31.136l-77.345 137.531q-9.251 15.524-25.541 20.97-16.29 5.445-31.246-2.207l-87.819-39.348q-10.87 8.109-25.439 16.957t-26.533 12.957l-14.428 95.406q-2.413 17.275-15.279 27.413-12.866 10.137-29.59 10.137Zm-78-276.406q61.383 0 104.658-43.248Q626.854-419.657 626.854-481q0-61.114-43.276-104.571-43.275-43.457-104.658-43.457-61.818 0-104.876 43.362-43.058 43.363-43.058 104.478 0 61.343 43.058 104.685 43.058 43.343 104.876 43.343Zm-.451-80.173q-28.136 0-47.723-19.923-19.587-19.924-19.587-47.956 0-28.032 19.764-47.838 19.763-19.805 47.84-19.805 27.918 0 47.918 19.923t20 47.955q0 28.033-20.117 47.838-20.118 19.806-48.095 19.806Zm1.437-67.428Zm-40.515 334.747h80.679l14.278-110.442q33.406-8.239 62.837-24.891 29.432-16.652 53.849-41.414l102.372 44.239 37.609-67.159-89.921-67.188q4.573-16.077 7.446-33.268 2.873-17.191 2.873-34.907 0-17.717-2.493-34.242-2.492-16.526-6.826-33.794l89.24-66.333-36.834-67.16-103.21 43.812q-22.71-25.891-52.383-43.759-29.672-17.867-64.994-23.799L521.275-815.08h-82.63l-12.587 108.348q-35.507 8.094-65.66 25.547Q330.246-663.732 307.34-639l-101.065-43.573-38.464 67.16 89.348 66.616q-4.572 18.174-6.945 34.532-2.374 16.359-2.374 32.889 0 16.238 2.374 33.144 2.373 16.906 6.945 35.776l-89.348 66.775 38.276 67.159 102.014-44.492q25.761 25.905 55.453 42.851 29.692 16.946 62.504 24.707l13.333 109.442Z"/></svg>