<svg xmlns="http://www.w3.org/2000/svg" height="40" viewBox="0 -960 960 960" width="40"><path d="M322.928-523.915q0 54.513 53.443 104.772 53.442 50.26 88.644 82.279 6.513 6.298 15.019 6.298t15.033-6.373q35.114-31.474 88.893-82.109 53.779-50.636 53.779-104.925 0-35.31-26.062-60.665-26.061-25.354-61.305-25.354-20.816 0-39.602 8.595-18.786 8.594-30.77 22.963-11.946-14.452-31.038-23.005-19.091-8.553-39.997-8.553-35.214 0-60.625 25.573-25.412 25.573-25.412 60.504ZM480-60.74q-7.33 0-14.27-1.036-6.941-1.036-13.056-3.775-145.014-46.587-230.04-176.568-85.025-129.98-85.025-278.619v-193.951q0-28.458 16.074-51.336 16.073-22.878 42.433-33.272l253.131-94.884Q463.884-899.5 480-899.5t31.42 5.319l253.131 94.884q25.706 10.088 41.853 33.06 16.146 22.972 16.146 51.548v193.951q0 148.639-85.105 278.619Q652.34-112.138 507.993-65.551q-6.782 2.406-13.723 3.609-6.94 1.203-14.27 1.203Zm0-87.274q110.406-38.703 181.768-141.728 71.363-103.025 71.363-230.944v-194.061L480-810l-253.131 95.369v193.834q0 128.03 71.363 231.055Q369.594-186.717 480-148.014Zm0-331.573Z"/></svg>