<svg xmlns="http://www.w3.org/2000/svg" height="40" viewBox="0 -960 960 960" width="40"><path d="M229.355-69.594v-173.558q-35.536-16.652-64.72-43.931-29.184-27.279-50.5-63.305-21.316-36.025-32.928-78.876-11.613-42.852-11.613-90.993 0-162.794 114.994-266.805 114.994-104.01 295.699-104.01t295.745 104.01q115.04 104.011 115.04 266.805 0 48.141-11.945 90.993-11.946 42.851-33.262 78.876-21.316 36.026-50.5 63.305-29.184 27.279-64.053 44.138v173.35H229.355Zm89.42-89.42h49.653v-93.334h82.245v93.334h59.32v-93.334h82.246v93.334h49.653v-140.333q36.398-11.609 65.779-32.587 29.38-20.979 49.967-49.526 20.587-28.547 32.381-64.088 11.793-35.54 11.793-74.904 0-126.029-88.924-203.694-88.923-77.666-232.654-77.666t-232.476 77.634q-88.744 77.634-88.744 203.983 0 39.463 11.38 74.826 11.381 35.362 31.968 63.947 20.587 28.586 50.38 49.526 29.794 20.94 66.033 32.483v140.399Zm86.682-172.805H555.21L480-481.572l-74.543 149.753Zm-65.32-113.182q34.228 0 58.291-24.029 24.064-24.03 24.064-57.773 0-34.228-24.081-58.292t-58.134-24.064q-34.052 0-57.998 24.081-23.945 24.081-23.945 58.134t24.029 57.998q24.03 23.945 57.774 23.945Zm280 0q34.228 0 58.291-24.029 24.064-24.03 24.064-57.773 0-34.228-24.081-58.292t-58.134-24.064q-34.052 0-57.998 24.081-23.945 24.081-23.945 58.134t24.029 57.998q24.03 23.945 57.774 23.945ZM480-159.014Z"/></svg>