<svg xmlns="http://www.w3.org/2000/svg" height="40" viewBox="0 -960 960 960" width="40"><path d="m480-356.768 112.957 85.551q12.543 10.543 25.445.885 12.902-9.658 8.678-25.226l-44.515-139.587 111.623-80.029q12.877-8.732 7.608-24.181-5.269-15.449-20.245-15.449H545.342l-44.48-145.935q-4.234-15.13-20.534-15.13-16.299 0-21.19 15.13l-45.106 145.935H278.609q-15.843 0-21.092 15.449-5.249 15.449 8.295 24.181l110.956 80.029-43.848 140.254q-4.224 15.568 8.678 24.892 12.902 9.325 26.112-1.218L480-356.768Zm.08 300.014q-88.626 0-166.354-32.746-77.728-32.747-134.604-89.622-56.875-56.876-89.622-134.604-32.746-77.728-32.746-166.354 0-88.881 32.768-166.312 32.767-77.431 89.82-134.537 57.053-57.105 134.641-89.791 77.587-32.685 166.097-32.685 88.872 0 166.314 32.66 77.442 32.661 134.56 89.771 57.119 57.109 89.785 134.565 32.666 77.456 32.666 166.492 0 88.823-32.685 166.172-32.686 77.35-89.791 134.403-57.106 57.053-134.537 89.82-77.431 32.768-166.312 32.768ZM480-480Zm-.087 333.986q141.239 0 237.656-96.213 96.417-96.212 96.417-237.688t-96.33-237.774q-96.33-96.297-237.569-96.297-141.239 0-237.656 96.213-96.417 96.212-96.417 237.688t96.33 237.774q96.33 96.297 237.569 96.297Z"/></svg>