<svg xmlns="http://www.w3.org/2000/svg" height="40" viewBox="0 -960 960 960" width="40"><path d="M347.209-238.608 480-318.13l133.457 80.522-36.254-150.044 117.537-101.87-154.138-13.428L480-645.501l-59.935 141.885-154.139 13.094 117.537 101.203-36.254 150.711ZM480-213.993l-175.848 106.29q-13.37 8.225-26.794 7.439-13.423-.787-23.315-9.011-10.13-7.319-15.21-19.123-5.079-11.804-1.906-27.174l46.718-200.848-155.848-136.182q-11.065-8.732-14.17-21.616-3.106-12.884.721-25.253 3.905-12.131 14.09-20.609 10.185-8.478 25.127-9.811l205.66-17.573 79.225-190.087q5.985-13.638 17.496-20.323 11.511-6.684 24.054-6.684t24.054 6.684q11.511 6.685 17.496 20.323l79.892 190.087 205.153 17.573q14.782 1.333 24.967 9.811 10.185 8.478 14.09 20.609 3.827 12.369.721 25.253-3.105 12.884-14.17 21.616L676.355-356.42l46.718 200.848q3.173 15.37-1.906 27.174-5.08 11.804-15.21 19.123-9.892 8.224-23.315 9.011-13.424.786-26.127-7.439L480-213.993Zm0-217.594Z"/></svg>