<svg xmlns="http://www.w3.org/2000/svg" height="40" viewBox="0 -960 960 960" width="40"><path d="M762.848-79.76 649.841-193.436l-88 88-36.646-36.645q-26.514-26.007-26.514-62.413 0-36.405 26.514-63.079l171.9-171.899q26.007-25.848 62.412-25.848 36.406 0 63.079 25.848l36.646 36.645-88 88 112.34 113.768q13.305 13.544 13.305 31.565 0 18.022-13.305 31.326l-57.739 58.406q-13.304 13.304-31.826 13.304-18.521 0-31.159-13.304ZM891.63-719.805 435.645-263.899l11.174 11.921q16.391 25.29 13.435 56.395-2.957 31.104-25.783 53.503l-36.645 36.645-88-88L196.485-79.428q-13.304 13.305-31.579 13.305t-31.152-13.305l-59.167-58.739q-13.464-13.304-13.464-31.326 0-18.021 13.464-31.565l114.007-113.768-88-88 36.486-36.645q22.986-22.399 54.177-25.236 31.192-2.837 56.721 13.888l11.921 11.174L715.804-895.63H891.63v175.826ZM325.927-584.521l26.283-27.189 26.935-26.029-26.935 26.029-26.283 27.189Zm-61.376 60.47L69.036-719.804V-895.63h175.986l195.753 195.833-61.63 62.058-170.971-170.544h-51.79v52.298l169.543 171.464-61.376 60.47Zm110.5 197.059 429.232-428.993v-52.298h-52.298L322.42-379.624l52.631 52.632Zm0 0-25.363-27.269-27.268-25.363 27.268 25.363 25.363 27.269Z"/></svg>