<svg xmlns="http://www.w3.org/2000/svg" height="40" viewBox="0 -960 960 960" width="40"><path d="M479.9-356.702q59.81 0 101.14-40.897 41.33-40.896 41.33-100.706 0-59.811-41.277-101.141-41.276-41.33-101.087-41.33t-100.76 41.277q-40.949 41.277-40.949 101.087 0 59.811 40.896 100.76 40.896 40.95 100.707 40.95Zm-.017 329.26q-18.253 0-31.216-13.047-12.964-13.046-12.964-31.25v-33.334h-37.986q-17.825 0-29.919-12.128-12.095-12.128-12.095-29.835 0-17.816 12.095-29.64 12.094-11.824 29.919-11.824h37.986v-83.072q-82.906-16.305-134.786-79.456-51.881-63.15-51.881-147.082 0-34.789 9.905-67.848 9.904-33.06 28.632-61.035l-25.841-26.08-28.675 28.435q-11.899 11.188-27.658 11.188-15.76 0-27.447-12.072-11.706-11.9-11.706-28.165t12.015-27.987l27.529-27.768-70.443-70.871v53.407q-1.275 17.885-14.268 30.413-12.993 12.529-30.812 12.529-18.253 0-31.217-13.047-12.963-13.047-12.963-31.25v-160.761q0-18.822 12.507-31.512 12.507-12.691 31.696-12.691h160.094q18.487 0 31.725 13.272 13.238 13.272 13.238 31.809 0 17.536-12.68 30.579t-30.928 13.601H198.76l70.443 71.109 29.435-29.196q10.949-11.347 26.565-10.934 15.616.413 27.507 12.195 11.913 11.475 11.913 27.973 0 16.499-11.855 27.563l-27.53 27.768 27.081 27.986q27.638-19.114 61.413-29.825 33.775-10.711 66.268-10.711t66.575 10.352q34.082 10.352 61.773 29.518l153.559-153.798h-53.646q-17.964-.558-30.453-13.715t-12.489-30.687q0-18.249 13.047-31.554t31.25-13.305h160.761q18.822 0 31.592 12.691 12.77 12.69 12.77 31.512v160.761q0 18.203-13.352 31.25-13.351 13.047-31.888 13.047-17.536 0-30.339-12.529-12.804-12.528-13.841-30.413v-53.407L673-627.087q18.943 28.421 28.787 61.305 9.843 32.883 9.843 67.672 0 83.932-52.213 147.082-52.214 63.151-134.453 79.456v83.072h38.079q17.428 0 29.674 11.941 12.247 11.941 12.247 29.638 0 17.856-12.247 29.852-12.246 11.996-29.674 11.996h-38.079v33.334q0 18.204-13.272 31.25-13.272 13.047-31.809 13.047Z"/></svg>