<svg xmlns="http://www.w3.org/2000/svg" height="40" viewBox="0 -960 960 960" width="40"><path d="M314.275-186.087q-19.355 0-32.159-12.924-12.804-12.924-12.804-32.04 0-18.688 12.804-31.492 12.804-12.804 32.159-12.804h256.283q63.645 0 109.935-41.29t46.29-103.602q0-62.312-46.29-103.602-46.29-41.29-109.935-41.29H313.224l69.899 69.232q12.543 13.21 12.496 31.66-.047 18.449-13.257 30.753-12.971 13.21-30.659 13.043-17.689-.166-30.66-13.137L175.855-578.674q-6.985-6.319-10.098-14.258-3.112-7.938-3.112-17.162 0-8.558 3.112-16.616 3.113-8.058 10.098-14.377l145.188-145.855q12.971-12.543 31.04-12.543t31.04 12.543q13.304 13.21 12.924 31.54-.381 18.329-12.924 30.873l-69.899 70.138h256.667q100.305 0 173.228 67.598 72.924 67.597 72.924 166.554 0 98.717-72.924 166.435-72.923 67.717-173.228 67.717H314.275Z"/></svg>